<svg xmlns="http://www.w3.org/2000/svg" xmlns:xlink="http://www.w3.org/1999/xlink" width="480" zoomAndPan="magnify" viewBox="0 0 360 359.999987" height="480" preserveAspectRatio="xMidYMid meet" version="1.0"><path fill="#ffffff" d="M 179.878906 0 C 179.96875 0 180.0625 0 180.15625 0.00390625 C 189.101562 0.0429688 197.226562 3.714844 203.121094 9.609375 C 209.039062 15.527344 212.703125 23.710938 212.710938 32.730469 L 212.730469 32.730469 L 212.730469 147.269531 L 327.269531 147.269531 C 336.273438 147.269531 344.457031 150.953125 350.390625 156.878906 C 356.289062 162.78125 359.964844 170.917969 360 179.878906 C 360 179.96875 360 180.0625 360 180.15625 C 359.957031 189.101562 356.285156 197.222656 350.390625 203.121094 C 344.472656 209.039062 336.289062 212.703125 327.269531 212.703125 L 327.269531 212.730469 L 212.730469 212.730469 L 212.730469 327.269531 C 212.730469 336.273438 209.046875 344.460938 203.121094 350.390625 C 197.214844 356.289062 189.082031 359.964844 180.121094 359.996094 C 180.027344 360 179.9375 360 179.84375 359.996094 C 170.898438 359.957031 162.773438 356.285156 156.878906 350.390625 C 150.964844 344.472656 147.292969 336.289062 147.292969 327.269531 L 147.269531 327.269531 L 147.269531 212.730469 L 32.730469 212.730469 C 23.726562 212.730469 15.542969 209.046875 9.609375 203.121094 C 3.710938 197.214844 0.0351562 189.082031 0.00390625 180.121094 C 0 180.027344 0 179.9375 0.00390625 179.84375 C 0.0429688 170.898438 3.714844 162.773438 9.609375 156.878906 C 15.527344 150.960938 23.710938 147.292969 32.730469 147.292969 L 32.730469 147.269531 L 147.269531 147.269531 L 147.269531 32.730469 C 147.269531 23.726562 150.953125 15.535156 156.878906 9.609375 C 162.78125 3.707031 170.917969 0.0351562 179.878906 0 " fill-opacity="1" fill-rule="nonzero"/></svg>