<svg xmlns="http://www.w3.org/2000/svg" xmlns:xlink="http://www.w3.org/1999/xlink" width="480" zoomAndPan="magnify" viewBox="0 0 360 359.999987" height="480" preserveAspectRatio="xMidYMid meet" version="1.0"><defs><clipPath id="18b8f1efbb"><path d="M 7 9 L 353 9 L 353 353.890625 L 7 353.890625 Z M 7 9 " clip-rule="nonzero"/></clipPath></defs><g clip-path="url(#18b8f1efbb)"><path fill="#ffffff" d="M 228.703125 181.660156 L 342.28125 68.152344 C 355.75 54.703125 355.75 32.882812 342.28125 19.421875 C 328.8125 5.972656 307 5.972656 293.53125 19.421875 L 179.953125 132.929688 L 66.378906 19.433594 C 52.921875 5.972656 31.085938 5.972656 17.617188 19.433594 C 4.160156 32.882812 4.160156 54.703125 17.617188 68.164062 L 131.191406 181.660156 L 17.339844 295.441406 C 3.882812 308.890625 3.882812 330.714844 17.339844 344.164062 C 24.0625 350.894531 32.902344 354.257812 41.714844 354.257812 C 50.53125 354.257812 59.367188 350.894531 66.101562 344.164062 L 179.941406 230.390625 L 293.507812 343.886719 C 300.242188 350.617188 309.066406 353.984375 317.882812 353.984375 C 326.695312 353.984375 335.523438 350.617188 342.257812 343.886719 C 355.726562 330.4375 355.726562 308.617188 342.257812 295.167969 Z M 228.703125 181.660156 " fill-opacity="1" fill-rule="nonzero"/></g></svg>