<?xml version="1.0" encoding="utf-8"?>
<!-- Generator: Adobe Illustrator 24.1.2, SVG Export Plug-In . SVG Version: 6.00 Build 0)  -->
<svg version="1.1" id="Ebene_1" xmlns="http://www.w3.org/2000/svg" xmlns:xlink="http://www.w3.org/1999/xlink" x="0px" y="0px"
	 viewBox="0 0 500 500" style="enable-background:new 0 0 500 500;" xml:space="preserve">
<g>
	<path d="M246.3,383.4c-30.8,0-61.1-0.8-90.2-2.5c-9.9-0.6-22.9-1.5-36-3.7c-25.1-4.3-43.2-22.2-48.4-47.8c-4.2-21-5.2-42-5.8-61.8
		c-0.9-29.7,0.2-57.1,3.5-83.7c0.9-7.1,2-13.3,3.5-19c6.2-23.5,25.9-40.1,51.2-43.3c32.8-4.1,65.9-4.6,97.9-5.1l6.5-0.1
		c4.8-0.1,9.7-0.1,14.3,0c2.1,0,4.3,0,6.4,0c33.7,0,69.8,0.5,105.5,3.1c8.3,0.6,17.2,1.4,26.3,3.2c25.5,5,42.9,23,47.6,49.4
		c5.7,31.9,6,62.9,5.5,89c-0.4,23.9-1.9,43.7-4.7,62.1c-3.2,21-12,36-27.2,45.7c-10.4,6.7-21.7,8.7-32.3,9.8
		c-36.7,3.9-74.1,4.2-107.1,4.6C257.4,383.4,251.8,383.4,246.3,383.4z M236.4,146.5c-2.5,0-4.9,0-7.3,0.1l-6.5,0.1
		c-31.2,0.5-63.5,1-94.7,4.9c-13.3,1.6-22.8,9.4-25.9,21.2c-1.1,4.3-2,9.2-2.8,15c-3.1,25-4.2,50.9-3.3,79c0.6,18.4,1.4,38,5.2,56.8
		c2.7,13.6,11,21.9,24,24.2c11.6,2,23.6,2.8,32.7,3.4c33.7,1.9,69,2.7,104.8,2.4c32.3-0.3,69-0.7,104.3-4.4c8.2-0.9,14.3-2,19.2-5.2
		c7.8-5,11.9-12.5,13.8-25c2.6-17.1,4-35.5,4.4-58.1c0.4-24.7,0.2-53.9-5.1-83.2l0,0c-2.6-14.3-10.4-22.6-23.8-25.2
		c-7.5-1.5-15.4-2.2-22.7-2.7c-34.8-2.6-70.2-3-103.3-3c-2.2,0-4.3,0-6.5,0C240.7,146.5,238.6,146.5,236.4,146.5z M216.4,315.6
		c-2.6,0-5.2-0.7-7.5-2c-4.6-2.7-7.5-7.6-7.5-13V199.2c0-5.4,2.9-10.3,7.5-13c4.6-2.7,10.4-2.7,15,0l88.1,50.7
		c4.6,2.7,7.5,7.6,7.5,13s-2.9,10.3-7.5,13l-88.1,50.7C221.5,315,218.9,315.6,216.4,315.6z M231.4,225.1v49.6l43-24.8L231.4,225.1z"
		/>
</g>
</svg>
