<svg version="1.1" id="Ebene_1" xmlns="http://www.w3.org/2000/svg" xmlns:xlink="http://www.w3.org/1999/xlink" x="0px" y="0px"
	 viewBox="0 0 500 500" style="enable-background:new 0 0 500 500;" xml:space="preserve">
<path d="M391.9,191.2c-0.7-15.3-3.2-25.7-6.7-34.8c-3.6-9.6-9.2-18.2-16.5-25.4c-7.2-7.3-15.8-12.9-25.4-16.5
	c-9.1-3.6-19.5-6-34.8-6.7s-20.2-0.9-59.1-0.9c-38.9,0-43.8,0.2-59.1,0.9s-25.7,3.2-34.8,6.7c-9.6,3.6-18.2,9.2-25.4,16.5
	c-7.3,7.2-12.9,15.8-16.5,25.4c-3.6,9.1-6,19.5-6.7,34.8c-0.7,15.3-0.9,20.2-0.9,59.1c0,38.9,0.2,43.8,0.9,59.1
	c0.7,15.3,3.2,25.7,6.7,34.8c3.6,9.6,9.2,18.2,16.5,25.4c7.2,7.3,15.8,12.9,25.4,16.5c9.1,3.6,19.5,6,34.8,6.7s20.2,0.9,59.1,0.9
	c38.9,0,43.8-0.2,59.1-0.9s25.7-3.2,34.8-6.7c19.2-7.4,34.5-22.6,41.9-41.9c3.6-9.1,6-19.5,6.7-34.8c0.7-15.3,0.9-20.2,0.9-59.1
	C392.8,211.4,392.6,206.5,391.9,191.2z M366,308.2c-0.6,14-2.9,21.5-4.9,26.6c-4.8,12.5-14.7,22.4-27.2,27.2
	c-5,1.9-12.6,4.3-26.6,4.9c-15.1,0.7-19.6,0.8-57.9,0.8c-38.3,0-42.8-0.1-57.9-0.8c-14-0.6-21.5-2.9-26.6-4.9
	c-6.2-2.3-11.9-5.9-16.5-10.7c-4.7-4.6-8.4-10.3-10.7-16.5c-1.9-5-4.3-12.6-4.9-26.6c-0.7-15.1-0.8-19.6-0.8-57.9
	c0-38.2,0.1-42.8,0.8-57.9c0.6-14,2.9-21.5,4.9-26.6c2.3-6.2,5.9-11.9,10.7-16.5c4.6-4.7,10.3-8.4,16.5-10.7
	c5-1.9,12.6-4.3,26.6-4.9c15.1-0.7,19.6-0.8,57.9-0.8c38.2,0,42.8,0.1,57.9,0.8c14,0.6,21.5,2.9,26.6,4.9
	c6.2,2.3,11.9,5.9,16.5,10.7c4.7,4.6,8.4,10.3,10.7,16.5c2,5,4.3,12.6,4.9,26.6c0.7,15.1,0.8,19.6,0.8,57.9
	C366.8,288.5,366.7,293.1,366,308.2z" fill="black"/>
<circle cx="325.9" cy="173.8" r="17.2" fill="black"/>
<path d="M249.4,176.7c-40.6,0-73.6,33-73.6,73.6c0,40.6,32.9,73.6,73.6,73.6c40.6,0,73.6-33,73.6-73.6
	C323,209.7,290.1,176.7,249.4,176.7z M249.4,298.1c-26.4,0-47.8-21.4-47.8-47.8c0-26.4,21.4-47.8,47.8-47.8
	c26.4,0,47.8,21.4,47.8,47.8C297.2,276.7,275.8,298.1,249.4,298.1z" fill="black"/>
</svg>
