<?xml version="1.0" encoding="utf-8"?>
<!-- Generator: Adobe Illustrator 24.1.2, SVG Export Plug-In . SVG Version: 6.00 Build 0)  -->
<svg version="1.1" id="Ebene_1" xmlns="http://www.w3.org/2000/svg" xmlns:xlink="http://www.w3.org/1999/xlink" x="0px" y="0px"
	 viewBox="0 0 500 500" style="enable-background:new 0 0 500 500;" xml:space="preserve">
<path d="M315.8,112.5c17.6,0,33.6,6.7,47.8,20.1c1,1,2,1.4,3.2,1.4c0.4,0,0.9-0.1,1.5-0.2c14.3-3.1,27.7-8.4,41.3-16.2
	c-5.4,16.4-15.2,28.3-28.6,37.6c13-1.2,25.2-5,37.8-10.1c-8.9,13-18.7,23.9-30.7,32.8c-3.1,2.2-3.8,4.6-3.7,8.3
	c0.7,31.9-6.4,62.1-20.2,90.7c-16.6,34.4-40.7,62.2-73.2,82.3c-23.2,14.3-48.4,22.9-75.4,26.5c-9.4,1.2-18.7,1.9-28.1,1.9
	c-14.3,0-28.4-1.5-42.5-4.5c-22.3-4.8-43.1-13.3-62.3-25.3c-0.2-0.1-0.5-0.3-1.5-1.1c5.1,0.5,10.1,0.7,15.1,0.7
	c31.7,0,60.3-9.5,86.6-29.2c-31.6-2.9-52.7-18.8-64.7-48.4c4.5,0.5,8.9,0.8,13.3,0.8c5.8,0,11.5-0.6,17.5-2.3
	c-16.6-4.1-29.7-12.2-39.8-24.9c-9.9-12.8-15-27.2-14.9-44c9.6,4.9,19.4,8,30.1,8.3C94,192,86.9,161.6,103.8,125
	c37.8,44.5,85.2,69,142.7,72.9c-0.2-6.9-0.8-13.5-0.7-20c0.8-28.6,22.7-55.6,50.3-62.7C303,113.4,309.5,112.5,315.8,112.5
	 M315.8,82.5c-8.8,0-17.9,1.2-27,3.5c-19.6,5-37.8,16.9-51.2,33.5c-10.4,12.9-17.4,28-20.2,43.6c-35.2-8.5-65.1-27.5-90.7-57.7
	c-5.7-6.8-14.1-10.6-22.9-10.6c-1.4,0-2.7,0.1-4.1,0.3c-10.1,1.4-18.9,7.9-23.2,17.2c-11.2,24.3-14.4,47.7-9.5,69.6
	c0.7,3.3,1.7,6.6,2.8,9.9c-3.6,5-5.6,11.1-5.7,17.4c-0.1,23.3,7,44.3,21.2,62.6c0,0.1,0.1,0.1,0.1,0.2c0.9,1.2,1.9,2.3,2.8,3.4
	c-0.7,5.2-0.1,10.5,1.9,15.5c5.5,13.8,12.9,25.5,21.8,35.2c-5.2,0.7-10.5,1.1-15.9,1.1c-4,0-8.2-0.2-12.4-0.6
	c-0.9-0.1-1.8-0.1-2.7-0.1c-12.3,0-23.5,7.6-28,19.3c-4.8,12.5-0.7,26.7,10,34.8c0.2,0.1,0.3,0.2,0.4,0.3c0.7,0.6,2.1,1.6,4.1,2.8
	c22.1,13.7,46,23.3,71.1,28.7c16,3.5,32.4,5.2,48.9,5.2c10.6,0,21.3-0.7,32-2.1c0,0,0,0,0.1,0c31.8-4.3,61.2-14.6,87.2-30.7
	c36.6-22.6,65-54.5,84.4-94.7h0c14.7-30.3,22.5-62.1,23.2-94.6c10.7-9.2,20.3-20.1,29.2-33.3c7.4-10.9,6.9-25.4-1.4-35.7
	c-1-1.2-2-2.3-3.1-3.3c1.9-10.7-2-21.7-10.6-28.6c-5.5-4.4-12.2-6.7-18.9-6.7c-5.2,0-10.4,1.3-15,4c-7.2,4.2-14.2,7.4-21.5,9.8
	C355.8,88.9,336.7,82.5,315.8,82.5L315.8,82.5z"/>
</svg>
