<svg xmlns="http://www.w3.org/2000/svg" viewBox="0 0 500 500" fill="none" width="20" height="20">
<path d="M278.7,458.6h-67.9c-8.3,0-15-6.7-15-15V273.5H154c-8.3,0-15-6.7-15-15v-66c0-8.3,6.7-15,15-15h41.7v-33.7
c0-31.3,9.7-57.4,27.9-75.5c17.7-17.5,42.5-26.8,71.7-26.8c26.3,0,47.4,2,52.7,2.7c7.5,1,13,7.4,13,14.9v59c0,8.3-6.7,15-15,15
h-34.8c-10.4,0-13.8,2.3-14.8,3.2c-1.8,1.9-2.8,6.5-2.7,13.8v27.3h50.2c4.3,0,8.4,1.9,11.3,5.1c2.8,3.2,4.2,7.5,3.6,11.8l-8.5,66
c-1,7.5-7.3,13.1-14.9,13.1h-41.7v170.2C293.7,451.9,287,458.6,278.7,458.6z M225.8,428.6h37.9V258.4c0-8.3,6.7-15,15-15h43.5
l4.6-36h-48.1c-8.3,0-15-6.7-15-15v-42.2c-0.1-10,1.1-24.6,11.5-35c8.1-8.1,19.9-12.1,36-12.1H331V72.8
c-9.3-0.7-22.1-1.3-35.7-1.3c-44.2,0-69.6,26.4-69.6,72.3v48.7c0,8.3-6.7,15-15,15H169v36h41.8c8.3,0,15,6.7,15,15V428.6z" fill="black"/>
</svg>
