<?xml version="1.0" encoding="utf-8"?>
<!-- Generator: Adobe Illustrator 24.1.2, SVG Export Plug-In . SVG Version: 6.00 Build 0)  -->
<svg version="1.1" id="Ebene_1" xmlns="http://www.w3.org/2000/svg" xmlns:xlink="http://www.w3.org/1999/xlink" x="0px" y="0px"
	 viewBox="0 0 500 500" style="enable-background:new 0 0 500 500;" xml:space="preserve">
<style type="text/css">
	.st0{fill:none;stroke:#000000;stroke-width:11;stroke-linejoin:round;stroke-miterlimit:10;}
</style>
<rect x="116.6" y="194.9" class="st0" width="60.9" height="183.1"/>
<path class="st0" d="M147.1,169.9h-0.4c-20.4,0-33.6-14.1-33.6-31.6c0-18,13.6-31.6,34.4-31.6s33.6,13.7,34,31.6
	C181.5,155.8,168.3,169.9,147.1,169.9z"/>
<path class="st0" d="M396.9,378h-60.8v-98c0-24.6-8.8-41.4-30.8-41.4c-16.8,0-26.8,11.3-31.2,22.3c-1.6,3.9-2,9.4-2,14.9V378h-60.9
	c0,0,0.8-165.9,0-183.1H272v25.9c8.1-12.5,22.6-30.2,54.8-30.2c40,0,70.1,26.2,70.1,82.4V378z"/>
</svg>
